<svg id="visual" viewBox="0 0 900 600" width="900" height="600" xmlns="http://www.w3.org/2000/svg" xmlns:xlink="http://www.w3.org/1999/xlink" version="1.1"><rect x="0" y="0" width="900" height="600" fill="#ffffff"></rect><path d="M0 372L129 373L257 400L386 387L514 423L643 378L771 354L900 422L900 601L771 601L643 601L514 601L386 601L257 601L129 601L0 601Z" fill="#00a6f4"></path><path d="M0 412L129 395L257 478L386 438L514 428L643 435L771 422L900 444L900 601L771 601L643 601L514 601L386 601L257 601L129 601L0 601Z" fill="#0092f8"></path><path d="M0 464L129 442L257 511L386 473L514 480L643 442L771 458L900 477L900 601L771 601L643 601L514 601L386 601L257 601L129 601L0 601Z" fill="#007cf6"></path><path d="M0 486L129 541L257 543L386 484L514 504L643 481L771 510L900 511L900 601L771 601L643 601L514 601L386 601L257 601L129 601L0 601Z" fill="#0063f0"></path><path d="M0 538L129 571L257 540L386 543L514 529L643 558L771 561L900 542L900 601L771 601L643 601L514 601L386 601L257 601L129 601L0 601Z" fill="#1447e6"></path></svg>