<?xml version="1.0" encoding="UTF-8"?>
<svg id="Layer_1" data-name="Layer 1" xmlns="http://www.w3.org/2000/svg" xmlns:xlink="http://www.w3.org/1999/xlink" viewBox="0 0 512 512">
  <defs>
    <style>
      .cls-1 {
        fill: #fff;
      }

      .cls-2 {
        fill: url(#linear-gradient);
      }
    </style>
    <linearGradient id="linear-gradient" x1="0" y1="256" x2="512" y2="256" gradientUnits="userSpaceOnUse">
      <stop offset="0" stop-color="#1447e6"/>
      <stop offset=".5" stop-color="#00a6f4"/>
      <stop offset="1" stop-color="#1447e6"/>
    </linearGradient>
  </defs>
  <circle class="cls-2" cx="256" cy="256" r="256"/>
  <g>
    <path class="cls-1" d="M256,183.41c11.04,0,19.99,8.95,20,19.99v-70.16c0,11.05-8.96,20-20,20s-20-8.95-20-20v70.16c0-11.04,8.96-19.99,20-19.99Z"/>
    <path class="cls-1" d="M256,261.04c-5.77,7.33-12.5,13.64-20,18.85v81.39c.01-11.04,8.96-19.98,20-19.98s19.99,8.94,20,19.98v-81.39c-7.5-5.21-14.23-11.53-20-18.85Z"/>
    <path class="cls-1" d="M256,183.42c-11.04,0-19.99,8.95-20,19.99-.01,23.44-15.74,44.41-38.24,50.99-10.6,3.1-16.68,14.21-13.58,24.81,3.1,10.6,14.21,16.69,24.81,13.58,9.78-2.86,18.85-7.22,27.02-12.89,7.5-5.21,14.23-11.53,20-18.85,5.77,7.33,12.5,13.64,20,18.85,8.16,5.67,17.24,10.03,27.02,12.89,1.87.55,3.76.81,5.62.81,8.66,0,16.64-5.67,19.19-14.39,3.1-10.6-2.98-21.71-13.58-24.81-22.5-6.58-38.23-27.55-38.24-50.99,0-11.04-8.96-19.99-20-19.99Z"/>
    <path class="cls-1" d="M170.16,130.45c2.75,10.7-3.69,21.6-14.39,24.35-6.86,1.76-13.02,4.88-18.29,8.98.91,1.96,1.9,3.89,2.99,5.77,3.7,6.42,10.43,10,17.34,10,3.39,0,6.83-.86,9.98-2.68,9.57-5.52,12.84-17.75,7.32-27.32-2.86-4.95-4.37-10.6-4.37-16.32,0-17.99,14.64-32.63,32.63-32.63,17.99,0,32.63,14.64,32.63,32.63h0c0,11.05,8.95,20,20,20s20-8.95,20-20h0c0-5.72,1.51-11.37,4.37-16.32,4.36-7.55,11.39-12.95,19.81-15.2,8.42-2.25,17.21-1.1,24.76,3.26,15.58,9,20.94,28.99,11.94,44.58-5.52,9.57-2.25,21.8,7.32,27.32,9.57,5.52,21.8,2.25,27.32-7.32,1.1-1.9,2.08-3.84,2.99-5.79-5.35-4.16-11.53-7.22-18.29-8.96-10.7-2.75-17.14-13.65-14.39-24.35,2.75-10.7,13.65-17.14,24.35-14.39,4.83,1.24,9.5,2.88,13.98,4.85-3.55-20.51-15.82-39.37-35.22-50.57-16.8-9.7-36.37-12.28-55.11-7.26-13.12,3.52-24.74,10.46-33.85,20.08-.41-.43-.83-.86-1.25-1.28-13.72-13.72-31.96-21.27-51.36-21.28h0c-35.85,0-65.69,26.11-71.56,60.31,4.46-1.97,9.13-3.61,14.01-4.86,10.7-2.75,21.6,3.69,24.35,14.39Z"/>
    <path class="cls-1" d="M341.84,130.45c-2.75,10.7,3.69,21.6,14.39,24.35,6.76,1.74,12.94,4.8,18.29,8.96,4.92,3.83,9.14,8.58,12.41,14.11,5.89,9.98,8.12,21.42,6.46,32.72,4.32-.65,8.88.09,12.96,2.45,8.75,5.05,16.45,11.48,22.91,18.91.67-2.01,1.28-4.05,1.81-6.1,6-23.33,2.55-47.59-9.7-68.33-9.71-16.44-24.05-29.08-41.2-36.61-4.48-1.97-9.14-3.61-13.98-4.85-10.7-2.75-21.6,3.69-24.35,14.39Z"/>
    <path class="cls-1" d="M451.43,291.13c0-22.01-8.12-42.98-22.18-59.17-6.45-7.43-14.16-13.86-22.91-18.91-4.08-2.36-8.64-3.1-12.96-2.45-5.81.87-11.19,4.28-14.36,9.77-5.52,9.57-2.25,21.8,7.32,27.32,15.47,8.93,25.08,25.58,25.08,43.45,0,27.67-22.51,50.18-50.17,50.18-11.05,0-20,8.96-20,20s8.96,20,20,20c3.78,0,7.5-.24,11.16-.69,3.32-7.89,4.68-16.73,3.51-25.82-1.42-10.95,6.32-20.98,17.27-22.4,10.96-1.41,20.98,6.32,22.4,17.27.56,4.31.79,8.58.74,12.8,21.33-16.51,35.09-42.35,35.09-71.35Z"/>
    <path class="cls-1" d="M415.6,349.67c-1.42-10.96-11.44-18.68-22.4-17.27-10.96,1.42-18.69,11.44-17.27,22.4,1.17,9.09-.18,17.92-3.51,25.82-6.71,15.94-21.47,28-39.82,30.38-13.29,1.72-26.46-1.84-37.07-10.03-10.61-8.18-17.4-20.01-19.12-33.3-.27-2.1-.41-4.25-.41-6.38-.01-11.04-8.96-19.98-20-19.98s-19.99,8.94-20,19.98c-.01,13.4-5.25,26-14.73,35.46-9.47,9.45-22.06,14.66-35.44,14.66h-.06c-13.4-.01-26-5.25-35.46-14.73-4.68-4.69-8.31-10.13-10.79-16.06-16.37-2.04-31.39-8.49-43.84-18.12.32,23.58,9.62,45.7,26.31,62.43,17.01,17.05,39.65,26.45,63.73,26.48h.1c24.05,0,46.66-9.35,63.69-26.34,2.29-2.29,4.45-4.68,6.46-7.17,4.4,5.42,9.46,10.37,15.13,14.74,15.94,12.29,35.08,18.78,54.88,18.78,3.89,0,7.82-.25,11.74-.76,45-5.82,78.03-44.06,78.61-88.19.06-4.22-.18-8.5-.74-12.8Z"/>
    <path class="cls-1" d="M150.74,381.31h0c11.04,0,20-8.95,20-20,0-11.05-8.95-20-20-20-27.67,0-50.17-22.51-50.17-50.18,0-17.87,9.61-34.51,25.08-43.45,9.57-5.52,12.84-17.76,7.32-27.32-3.17-5.49-8.55-8.89-14.36-9.77.26,1.76.6,3.53,1.06,5.3,1.01,3.92,2.49,7.72,4.41,11.29,5.24,9.73,1.6,21.85-8.13,27.09-3.02,1.62-6.26,2.39-9.46,2.39-7.12,0-14.02-3.81-17.63-10.52-2.45-4.54-4.49-9.29-6.12-14.19-14.06,16.19-22.17,37.17-22.18,59.17,0,29.01,13.77,54.86,35.12,71.37,12.45,9.62,27.47,16.07,43.84,18.12,3.68.46,7.42.7,11.22.7Z"/>
    <path class="cls-1" d="M106.49,256.66c3.2,0,6.45-.77,9.46-2.39,9.73-5.24,13.37-17.36,8.13-27.09-1.92-3.57-3.4-7.36-4.41-11.29-.45-1.76-.8-3.53-1.06-5.3-2.65-18.16,4.94-35.95,18.87-46.81,5.26-4.1,11.42-7.22,18.29-8.98,10.7-2.75,17.14-13.65,14.39-24.35-2.75-10.7-13.65-17.14-24.35-14.39-4.87,1.25-9.55,2.89-14.01,4.86-39.61,17.49-62,61.65-50.87,104.93.53,2.06,1.14,4.09,1.81,6.1,1.63,4.89,3.68,9.65,6.12,14.19,3.61,6.71,10.51,10.52,17.63,10.52Z"/>
  </g>
</svg>